<svg width="20" height="16" viewBox="0 0 20 16" fill="none" xmlns="http://www.w3.org/2000/svg">
<path d="M17.0842 8.81516L16.3041 8.71542L15.9239 9.12917H15.7185C15.6613 7.76251 15.1132 6.52027 14.2452 5.57625L14.3914 5.43011L14.9532 5.45381L15.4341 4.8317C15.994 4.10591 16.2972 3.55095 16.7564 2.75702C16.7425 2.7432 16.7445 2.74517 16.7307 2.73135C15.9358 3.18953 15.3808 3.49269 14.655 4.05357L14.0329 4.53447L14.0576 5.09535L13.9105 5.24249C12.9664 4.37351 11.7252 3.82546 10.3585 3.7672V3.5628L10.7723 3.18361L10.6725 2.40351C10.555 1.49306 10.3773 0.886749 10.1403 0H10.1038C9.86578 0.886749 9.68804 1.49306 9.57152 2.40351L9.47079 3.18361L9.88455 3.5628V3.7672C8.5169 3.82349 7.27466 4.37154 6.33064 5.24051L6.18548 5.09535L6.21016 4.53447L5.58806 4.05357C4.86128 3.49269 4.30731 3.18953 3.51239 2.73135C3.49857 2.74517 3.50054 2.7432 3.48672 2.75702C3.71581 3.15398 3.90639 3.4917 4.10981 3.81954C4.31323 4.14936 4.5285 4.4693 4.80894 4.8317L5.28885 5.45381L5.85072 5.43011L5.99489 5.57428C5.12592 6.51929 4.5759 7.76153 4.51961 9.12917H4.31817L3.93799 8.71542L3.15789 8.81516C2.24843 8.93168 1.64113 9.11041 0.755371 9.3474V9.38394C1.64113 9.62192 2.24843 9.79967 3.15789 9.91619L3.93799 10.0159L4.31817 9.60217H4.51961C4.57689 10.9708 5.12592 12.213 5.99489 13.1571L5.85072 13.3012L5.28885 13.2775L4.80894 13.8996C4.24806 14.6254 3.9449 15.1804 3.48573 15.9743C3.49955 15.9882 3.49758 15.9862 3.5114 16C4.30632 15.5418 4.86029 15.2387 5.58707 14.6778L6.20918 14.1969L6.18449 13.636L6.32965 13.4918C6.64663 13.7831 6.99718 14.0379 7.37439 14.2502C7.38822 14.2354 7.38723 14.2374 7.40105 14.2226C7.31119 14.0655 7.24701 13.8967 7.17789 13.6735C7.17492 13.6706 7.17295 13.6666 7.16999 13.6636C5.73025 12.6722 4.80993 10.9777 4.91164 9.0798C5.05482 6.41165 7.24108 4.25896 9.91121 4.15528C12.8805 4.03975 15.3314 6.42153 15.3314 9.36518C15.3314 11.1446 14.4348 12.7186 13.0711 13.6597C13.0682 13.6627 13.0662 13.6666 13.0632 13.6696C12.9941 13.8937 12.9289 14.0636 12.84 14.2206C12.8539 14.2354 12.8529 14.2334 12.8667 14.2482C13.2429 14.0349 13.5925 13.7792 13.9085 13.4889L14.0556 13.635L14.0309 14.1969L14.653 14.6768C15.3798 15.2377 15.9338 15.5408 16.7297 15.999L16.7554 15.9733C16.5263 15.5764 16.3357 15.2387 16.1323 14.9098C15.9289 14.581 15.7136 14.2601 15.4331 13.8977L14.9522 13.2756L14.3904 13.2993L14.2442 13.1531C15.1122 12.2081 15.6613 10.9678 15.7175 9.6002H15.9229L16.3031 10.0139L17.0832 9.91421C17.9927 9.79769 18.6 9.61995 19.4857 9.38197V9.34543C18.6 9.10844 17.9927 8.9297 17.0832 8.81318L17.0842 8.81516Z" fill="#5BBE7B"/>
<path d="M10.1216 4.85107C14.2405 4.8512 13.6641 8.78071 13.6772 8.81299L13.1626 11.1899L12.2798 11.9751L11.7202 13.5884L11.1265 14.644H11.1274V15.439C10.9092 15.6236 10.7016 15.7603 10.5288 15.7603H10.5142V13.4507H9.729V15.7603H9.71436C9.54159 15.7602 9.33387 15.6236 9.11572 15.439V14.644L8.52295 13.5884L7.9624 11.9751L7.07959 11.1899L6.56592 8.81299C6.57792 8.77299 6.00661 4.85107 10.1216 4.85107ZM6.45264 9.22412L6.90088 11.2944L7.79346 12.0874L8.33936 13.6616L8.91846 14.6958L8.92041 14.6968V15.2642C8.77828 15.1319 8.63476 14.9901 8.49658 14.8608C7.76099 14.1717 7.694 14.0547 7.50049 13.3804C7.37019 12.9273 7.15814 12.4187 7.03271 12.1333L7.06396 12.1108L7.41162 12.4155L7.58643 12.9399L7.77197 12.8774L7.58057 12.3032L6.77783 11.6021C6.77783 11.6021 6.68945 11.5246 6.64893 11.4653C6.50179 11.2501 6.27979 10.6032 6.27979 9.8833C6.27981 9.61486 6.32316 9.39394 6.37744 9.22119L6.45264 9.22412ZM13.8657 9.22021C13.919 9.39295 13.9624 9.61392 13.9624 9.88232C13.9624 10.6022 13.7414 11.2491 13.5942 11.4644C13.5608 11.5121 13.4895 11.5782 13.4849 11.5825L12.6636 12.3013L12.4712 12.8755L12.6577 12.938L12.8325 12.4136L13.1802 12.1089L13.2114 12.1313C13.085 12.4178 12.874 12.9253 12.7437 13.3784C12.5501 14.0538 12.4822 14.1707 11.7466 14.8589C11.6095 14.9881 11.4657 15.1301 11.3237 15.2622V14.6948L11.896 13.6763L12.4487 12.0864L13.3403 11.2935H13.3413L13.7896 9.22314L13.8657 9.22021ZM7.08838 9.84033C7.0893 9.8586 7.14959 10.9782 7.93018 11.2612H7.9292C8.71449 11.5456 9.43115 11.3747 9.43604 11.3735C9.43431 11.3629 9.28343 10.4467 8.33936 10.1089C7.38941 9.7692 7.08838 9.84033 7.08838 9.84033ZM13.1519 9.83936C13.149 9.8387 12.8473 9.76982 11.9019 10.1079H11.9009C10.9579 10.4441 10.8064 11.3591 10.8042 11.3726C10.8241 11.3772 11.5351 11.5416 12.311 11.2603C13.0908 10.9782 13.1508 9.85915 13.1519 9.83936ZM12.522 6.08447C12.5052 6.11706 12.1092 6.87854 12.0894 8.11963H11.5044V9.70752H11.7017V8.31689H12.2847V8.21826C12.2847 7.98142 12.3 7.76139 12.3237 7.56006H12.77V7.36377H12.3501C12.4656 6.62317 12.6928 6.18219 12.6958 6.17627L12.522 6.08447ZM7.54541 6.17529C7.54837 6.18122 7.77558 6.62219 7.89111 7.36279H7.47119V7.55811H7.91748C7.94116 7.75942 7.95555 7.97949 7.95557 8.21631V8.31396H8.53955V9.70557H8.73584V8.11865H8.15186C8.13206 6.87854 7.73602 6.11608 7.71924 6.0835L7.54541 6.17529ZM10.0229 7.29443C9.70893 7.31715 9.46838 7.44085 9.45752 7.44678L9.54834 7.62061C9.5513 7.61863 9.81054 7.48584 10.1206 7.48584C10.428 7.4859 10.6876 7.61841 10.6919 7.62061H10.6929L10.7837 7.44678C10.7717 7.44028 10.5314 7.31711 10.2192 7.29443V5.95557H10.0229V7.29443Z" fill="#5BBE7B"/>
</svg>
