<svg width="14" height="14" viewBox="0 0 14 14" fill="none" xmlns="http://www.w3.org/2000/svg">
<path fill-rule="evenodd" clip-rule="evenodd" d="M0.755371 3.6C0.755371 1.61177 2.39233 0 4.41162 0H12.5366C13.2097 0 13.7554 0.537258 13.7554 1.2V13.2C13.7554 13.6418 13.3916 14 12.9429 14H3.59912C2.16649 14 0.981294 12.9569 0.78417 11.6H0.755371V3.6ZM12.5366 9.6H3.59912C2.70166 9.6 1.97412 10.3163 1.97412 11.2C1.97412 12.0837 2.70166 12.8 3.59912 12.8H12.5366V9.6ZM4.2085 3.6C4.2085 3.26863 4.48132 3 4.81787 3H10.5054C10.8419 3 11.1147 3.26863 11.1147 3.6C11.1147 3.93137 10.8419 4.2 10.5054 4.2H4.81787C4.48132 4.2 4.2085 3.93137 4.2085 3.6ZM4.81787 5.4C4.48132 5.4 4.2085 5.66863 4.2085 6C4.2085 6.33137 4.48132 6.6 4.81787 6.6H8.88037C9.21692 6.6 9.48975 6.33137 9.48975 6C9.48975 5.66863 9.21692 5.4 8.88037 5.4H4.81787Z" fill="#5BBE7B"/>
</svg>
