<svg width="215" height="56" viewBox="0 0 215 56" fill="none" xmlns="http://www.w3.org/2000/svg">
<g clip-path="url(#clip0_297_313)">
<path d="M57.3955 30.8531L54.6652 30.504L53.3345 31.9521H52.6157C52.4152 27.1688 50.4971 22.821 47.4591 19.5169L47.9706 19.0054L49.9372 19.0883L51.6203 16.9109C53.5799 14.3707 54.641 12.4283 56.2481 9.64957C56.1997 9.60118 56.2066 9.6081 56.1582 9.55971C53.376 11.1634 51.4337 12.2244 48.8934 14.1875L46.716 15.8706L46.8024 17.8337L46.2875 18.3487C42.9834 15.3073 38.639 13.3891 33.8557 13.1852V12.4698L35.3038 11.1426L34.9547 8.41227C34.5435 5.2257 33.9214 3.10362 33.0919 0H32.964C32.1311 3.10362 31.509 5.2257 31.1011 8.41227L30.7486 11.1426L32.1967 12.4698V13.1852C27.41 13.3822 23.0621 15.3004 19.7581 18.3418L19.25 17.8337L19.3364 15.8706L17.159 14.1875C14.6153 12.2244 12.6764 11.1634 9.8942 9.55971C9.84581 9.6081 9.85273 9.60118 9.80434 9.64957C10.6062 11.0389 11.2732 12.2209 11.9852 13.3684C12.6971 14.5227 13.4506 15.6425 14.4321 16.9109L16.1118 19.0883L18.0784 19.0054L18.583 19.51C15.5415 22.8175 13.6165 27.1653 13.4195 31.9521H12.7144L11.3838 30.504L8.65344 30.8531C5.47033 31.2609 3.3448 31.8864 0.244629 32.7159V32.8438C3.3448 33.6767 5.47033 34.2988 8.65344 34.7067L11.3838 35.0557L12.7144 33.6076H13.4195C13.6199 38.3978 15.5415 42.7457 18.583 46.0497L18.0784 46.5543L16.1118 46.4714L14.4321 48.6488C12.469 51.189 11.408 53.1314 9.80088 55.9101C9.84927 55.9585 9.84236 55.9516 9.89074 56C12.6729 54.3963 14.6118 53.3353 17.1556 51.3722L19.3329 49.6891L19.2465 47.726L19.7546 47.2214C20.864 48.2409 22.091 49.1326 23.4112 49.8757C23.4596 49.8239 23.4561 49.8308 23.5045 49.7789C23.19 49.2294 22.9654 48.6384 22.7234 47.8573C22.7131 47.8469 22.7061 47.8331 22.6958 47.8228C17.6567 44.3528 14.4356 38.422 14.7916 31.7793C15.2927 22.4408 22.9446 14.9064 32.2901 14.5435C42.6827 14.1391 51.2609 22.4753 51.2609 32.7781C51.2609 39.0061 48.1227 44.5152 43.3497 47.8089C43.3394 47.8193 43.3325 47.8331 43.3221 47.8435C43.0802 48.628 42.852 49.2225 42.541 49.772C42.5894 49.8239 42.5859 49.8169 42.6343 49.8688C43.9511 49.1223 45.1746 48.2271 46.2805 47.211L46.7955 47.7225L46.7091 49.6891L48.8865 51.3688C51.4302 53.3319 53.3691 54.3929 56.1548 55.9965L56.2446 55.9067C55.4428 54.5173 54.7758 53.3353 54.0638 52.1844C53.3518 51.0335 52.5984 49.9103 51.6168 48.6419L49.9337 46.4645L47.9671 46.5474L47.4556 46.0359C50.4936 42.7284 52.4152 38.3875 52.6122 33.6007H53.3311L54.6617 35.0488L57.3921 34.6997C60.5752 34.2919 62.7007 33.6698 65.8009 32.8369V32.709C62.7007 31.8795 60.5752 31.254 57.3921 30.8461L57.3955 30.8531Z" fill="#5BBE7B"/>
<path d="M33.0259 16.98C47.4621 16.9801 45.4193 30.7702 45.4712 30.8462L43.6704 39.1646L40.5806 41.9126L38.6216 47.5601L36.5444 51.2544H36.5474V54.0366C35.7838 54.6827 35.0583 55.1594 34.4536 55.1597H34.4009V47.0757H31.6538V55.1597H31.6021C30.9972 55.1597 30.2711 54.6829 29.5073 54.0366V51.2544L27.4302 47.5601L25.4702 41.9126L22.3804 39.1646L20.5806 30.8462C20.6313 30.7629 18.5934 16.98 33.0259 16.98ZM20.186 32.2837L21.7554 39.5317L24.8765 42.3062L26.7876 47.8159L28.8159 51.4341L28.8237 51.438V53.4253C28.326 52.9622 27.8242 52.464 27.3403 52.0112C24.7658 49.5991 24.5304 49.191 23.853 46.8306C23.3968 45.2443 22.6542 43.4641 22.2153 42.4653L22.3257 42.3892L23.5425 43.4536L24.1538 45.2896L24.8042 45.0718L24.1333 43.0601L21.3237 40.606C21.3237 40.606 21.0123 40.3368 20.8706 40.1294C20.3556 39.376 19.5815 37.1118 19.5815 34.5923C19.5816 33.6523 19.7303 32.8777 19.9204 32.2729L20.186 32.2837ZM46.1313 32.27C46.318 32.8748 46.4702 33.6493 46.4702 34.5894C46.4701 37.1087 45.6961 39.372 45.1812 40.1255C45.0602 40.2983 44.7974 40.5405 44.7974 40.5405L41.9224 43.0532L41.2515 45.0649L41.9019 45.2827L42.5132 43.4468L43.73 42.3823L43.8403 42.4585C43.398 43.4607 42.6589 45.2374 42.2026 46.8237C41.5253 49.1876 41.2899 49.5957 38.7153 52.0044C38.2349 52.4571 37.7296 52.9553 37.2319 53.4185V51.4312L39.2368 47.8677L41.1724 42.3032L44.2935 39.5278H44.2964L45.8657 32.2808L46.1313 32.27ZM22.4116 34.4399C22.4116 34.4399 22.6024 38.4147 25.3569 39.4136H25.353C28.111 40.4124 30.6274 39.8081 30.6274 39.8081C30.6274 39.8081 30.1123 36.5693 26.7876 35.3804C23.4628 34.1915 22.4116 34.4399 22.4116 34.4399ZM43.6323 34.437C43.6116 34.4323 42.5493 34.2003 39.2573 35.3774H39.2534C35.9397 36.5592 35.4169 39.7833 35.4136 39.8042C35.4136 39.8042 37.9335 40.4094 40.688 39.4106C43.4361 38.4176 43.6314 34.4557 43.6323 34.437ZM41.4272 21.2964C41.3685 21.4104 39.9828 24.0753 39.9136 28.4194H37.8677V33.9771H38.5552V29.1079H40.5981V28.7651C40.5982 27.9359 40.65 27.1653 40.7329 26.4604H42.2954V25.772H40.8267C41.2311 23.1801 42.0253 21.6384 42.0356 21.6177L41.4272 21.2964ZM24.0083 21.6147C24.0187 21.6355 24.8139 23.1769 25.2183 25.769H23.7495V26.4536H25.312C25.3949 27.1585 25.4468 27.9291 25.4468 28.7583V29.1011H27.4888V33.9702H28.1772V28.4165H26.1304C26.0613 24.0768 24.6762 21.4089 24.6167 21.2935L24.0083 21.6147ZM32.6802 25.5308C31.583 25.6101 30.7442 26.0409 30.7036 26.063L31.021 26.6714C31.0314 26.6645 31.9369 26.2008 33.022 26.2007C34.0981 26.2007 35.0077 26.6636 35.0229 26.6714H35.0269L35.3452 26.063C35.3072 26.0423 34.4633 25.6103 33.3677 25.5308V20.8442H32.6802V25.5308Z" fill="#5BBE7B"/>
<path d="M89.395 11.1682C92.935 11.1682 95.5243 11.8777 97.2065 12.5725C99.5177 13.5233 102.187 13.0264 103.928 11.22L103.951 11.1975H104.309L99.0132 19.4114H98.5454C98.1869 15.5642 94.6026 13.2747 90.397 13.2747C83.2875 13.2747 80.2524 17.4517 80.2524 21.9573C80.2526 26.9601 83.8657 30.1125 89.9146 30.1125L89.9292 30.1047C95.4293 30.1046 97.7183 26.967 97.7183 26.967H99.7739C97.9015 30.0025 94.7632 32.4163 89.0435 32.4163C82.2486 32.4162 74.7153 29.6441 74.7153 22.4104C74.7154 15.6228 81.4079 11.1682 89.395 11.1682ZM127.268 29.8342H127.275C128.145 31.1507 128.87 31.9845 130.303 31.9846V32.2112H120.232V31.9846C122.002 31.9846 122.769 31.5241 121 28.7815L119.632 26.6526C118.879 25.4896 118.045 25.4973 116.545 25.4973C116.545 25.4973 107.526 25.4973 107.504 25.4973C107.479 25.537 105.398 28.7665 105.383 28.7883C104.147 30.6973 104.843 31.9924 106.613 31.9924V32.219H99.5981V31.9924C100.988 31.9924 101.815 31.0923 102.626 29.8782C102.669 29.8045 113.571 12.898 114.841 10.927H115.083L127.268 29.8342ZM173.333 10.927L185.519 29.8342H185.527C186.397 31.1508 187.122 31.9846 188.555 31.9846V32.2112H178.483V31.9846C180.253 31.9846 181.021 31.524 179.251 28.7815L177.883 26.6526C177.13 25.4898 176.296 25.4973 174.796 25.4973H165.756C165.741 25.5219 163.658 28.7535 163.635 28.7883C162.399 30.6973 163.094 31.9923 164.864 31.9924V32.219H157.849V31.9924C159.239 31.9924 160.066 31.0923 160.877 29.8782C160.884 29.8715 160.891 29.8589 160.892 29.8567C160.958 29.7543 171.819 12.895 173.092 10.927H173.333ZM201.444 11.8997C199.827 11.8997 198.496 13.0995 198.277 14.6575L198.248 28.7961H209.08C210.85 28.7961 213.22 27.3621 214.375 25.592H214.744L210.477 32.2112H189.91V31.9846C191.621 31.9844 193.018 30.6311 193.106 28.9417L193.069 15.1038H193.062C193.062 13.3337 191.628 11.8997 189.858 11.8997V11.6731H201.444V11.8997ZM147.477 11.6731C152.787 11.6731 155.567 13.0262 155.567 16.5881C155.567 20.1502 153.76 21.533 151.675 21.9133V22.1614L152.169 22.2131C154.67 22.5452 157.556 24.0266 157.556 26.5432C157.556 30.544 153.497 32.2043 148.896 32.2043H130.815V31.9778C132.585 31.9778 134.019 30.5437 134.019 28.7737V15.1038C134.019 13.3337 132.585 11.8997 130.815 11.8997V11.6731H147.477ZM139.007 29.7463H148.516C150.593 29.7462 153.058 28.8103 153.058 26.47C153.058 24.1294 151.346 23.0178 148.165 23.0178H139.007V29.7463ZM214.755 25.592H214.744L214.749 25.5852L214.755 25.592ZM109.092 23.0247H117.284L113.188 16.6692L109.092 23.0247ZM167.336 23.0247H175.528L171.432 16.6692L167.336 23.0247ZM139 21.0862H147.873C150.615 21.0859 151.88 18.9363 151.88 17.2395C151.88 15.8205 151.076 14.1458 147.835 14.1458H139V21.0862Z" fill="#5BBE7B"/>
<path d="M77.6593 42.8663H74.9713V41.5991H81.8321V42.8663H79.1441V50.5591H77.6593V42.8663ZM89.7959 47.6663V50.5591H88.3111V48.0247L87.3895 47.0135H84.4711V50.5591H82.9863V41.5991H88.4391L89.7447 42.9175V45.6695L88.8103 46.6039L89.7959 47.6663ZM84.4711 45.7847H87.7735L88.2855 45.2727V43.3655L87.7735 42.8535H84.4711V45.7847ZM94.007 41.5991H95.415L98.6534 50.5591H97.143L96.375 48.4343H93.0342L92.2662 50.5591H90.7558L94.007 41.5991ZM96.0294 47.1927L94.711 43.4039H94.6854L93.3926 47.1927H96.0294ZM99.6738 41.5991H105.216L106.714 43.0967V49.0615L105.216 50.5591H99.6738V41.5991ZM104.499 49.2791L105.229 48.5623V43.5959L104.499 42.8791H101.159V49.2791H104.499ZM108.438 41.5991H109.923V50.5591H108.438V41.5991ZM111.774 41.5991H113.131L117.355 48.1143H117.38V41.5991H118.801V50.5591H117.444L113.22 44.0567H113.195V50.5591H111.774V41.5991ZM120.471 49.1127V43.0455L121.917 41.5991H126.192L127.613 43.0199V44.1975H126.128V43.5447L125.45 42.8791H122.685L121.956 43.5959V48.5623L122.685 49.2791H125.45L126.167 48.5751V46.9495H124.208V45.6695H127.613V49.1127L126.167 50.5591H121.917L120.471 49.1127ZM132.511 41.5991H137.939L139.18 42.8407V45.3495L138.63 45.8999L139.577 46.8471V49.2151L138.233 50.5591H132.511V41.5991ZM137.196 45.4519L137.721 44.9271V43.3655L137.209 42.8535H133.958V45.4519H137.196ZM137.503 49.3047L138.118 48.6903V47.2567L137.503 46.6551H133.958V49.3047H137.503ZM140.858 49.1127V43.0455L142.305 41.5991H146.734L148.18 43.0455V49.1127L146.734 50.5591H142.305L140.858 49.1127ZM145.966 49.2791L146.695 48.5623V43.5959L145.966 42.8791H143.073L142.343 43.5959V48.5623L143.073 49.2791H145.966ZM151.709 42.8663H149.021V41.5991H155.882V42.8663H153.194V50.5591H151.709V42.8663Z" fill="#5BBE7B"/>
</g>
<defs>
<clipPath id="clip0_297_313">
<rect width="214.511" height="56" fill="white" transform="translate(0.244629)"/>
</clipPath>
</defs>
</svg>
