<svg width="18" height="19" viewBox="0 0 18 19" fill="none" xmlns="http://www.w3.org/2000/svg">
<path fill-rule="evenodd" clip-rule="evenodd" d="M16.7706 4.56991C16.9175 4.7168 17 4.91601 17 5.12373C17 5.33144 16.9175 5.53065 16.7706 5.67754L14.4206 8.02756C14.2729 8.17025 14.075 8.2492 13.8696 8.24742C13.6642 8.24564 13.4678 8.16325 13.3225 8.01802C13.1773 7.87278 13.0949 7.67631 13.0931 7.47092C13.0913 7.26553 13.1703 7.06766 13.313 6.91992L14.3259 5.90706L5.2501 5.90706C5.04235 5.90706 4.8431 5.82453 4.6962 5.67763C4.54929 5.53072 4.46677 5.33148 4.46677 5.12372C4.46677 4.91597 4.54929 4.71673 4.6962 4.56982C4.8431 4.42292 5.04235 4.34039 5.2501 4.34039L14.3259 4.34039L13.313 3.32753C13.1703 3.17979 13.0913 2.98192 13.0931 2.77653C13.0949 2.57114 13.1773 2.37467 13.3225 2.22943C13.4678 2.0842 13.6642 2.00181 13.8696 2.00003C14.075 1.99824 14.2729 2.0772 14.4206 2.21989L16.7706 4.56991ZM13.8668 12.9571C13.8668 13.1649 13.7843 13.3641 13.6374 13.511C13.4905 13.6579 13.2912 13.7404 13.0835 13.7404L4.00773 13.7404L5.02059 14.7533C5.16328 14.901 5.24223 15.0989 5.24045 15.3043C5.23866 15.5097 5.15628 15.7062 5.01104 15.8514C4.86581 15.9966 4.66933 16.079 4.46394 16.0808C4.25856 16.0826 4.06068 16.0036 3.91294 15.8609L1.56293 13.5109C1.41608 13.364 1.33358 13.1648 1.33358 12.9571C1.33358 12.7494 1.41608 12.5502 1.56293 12.4033L3.91294 10.0533C4.06068 9.91058 4.25856 9.83162 4.46395 9.83341C4.66933 9.83519 4.86581 9.91757 5.01104 10.0628C5.15628 10.208 5.23866 10.4045 5.24045 10.6099C5.24223 10.8153 5.16328 11.0132 5.02059 11.1609L4.00773 12.1738L13.0835 12.1738C13.2912 12.1738 13.4905 12.2563 13.6374 12.4032C13.7843 12.5501 13.8668 12.7493 13.8668 12.9571Z" fill="#747474"/>
<mask id="mask0_169_5259" style="mask-type:alpha" maskUnits="userSpaceOnUse" x="1" y="2" width="16" height="15">
<path fill-rule="evenodd" clip-rule="evenodd" d="M16.7706 4.56991C16.9175 4.7168 17 4.91601 17 5.12373C17 5.33144 16.9175 5.53065 16.7706 5.67754L14.4206 8.02756C14.2729 8.17025 14.075 8.2492 13.8696 8.24742C13.6642 8.24564 13.4678 8.16325 13.3225 8.01802C13.1773 7.87278 13.0949 7.67631 13.0931 7.47092C13.0913 7.26553 13.1703 7.06766 13.313 6.91992L14.3259 5.90706L5.2501 5.90706C5.04235 5.90706 4.8431 5.82453 4.6962 5.67763C4.54929 5.53072 4.46677 5.33148 4.46677 5.12372C4.46677 4.91597 4.54929 4.71673 4.6962 4.56982C4.8431 4.42292 5.04235 4.34039 5.2501 4.34039L14.3259 4.34039L13.313 3.32753C13.1703 3.17979 13.0913 2.98192 13.0931 2.77653C13.0949 2.57114 13.1773 2.37467 13.3225 2.22943C13.4678 2.0842 13.6642 2.00181 13.8696 2.00003C14.075 1.99824 14.2729 2.0772 14.4206 2.21989L16.7706 4.56991ZM13.8668 12.9571C13.8668 13.1649 13.7843 13.3641 13.6374 13.511C13.4905 13.6579 13.2912 13.7404 13.0835 13.7404L4.00773 13.7404L5.02059 14.7533C5.16328 14.901 5.24223 15.0989 5.24045 15.3043C5.23866 15.5097 5.15628 15.7062 5.01104 15.8514C4.86581 15.9966 4.66933 16.079 4.46394 16.0808C4.25856 16.0826 4.06068 16.0036 3.91294 15.8609L1.56293 13.5109C1.41608 13.364 1.33358 13.1648 1.33358 12.9571C1.33358 12.7494 1.41608 12.5502 1.56293 12.4033L3.91294 10.0533C4.06068 9.91058 4.25856 9.83162 4.46395 9.83341C4.66933 9.83519 4.86581 9.91757 5.01104 10.0628C5.15628 10.208 5.23866 10.4045 5.24045 10.6099C5.24223 10.8153 5.16328 11.0132 5.02059 11.1609L4.00773 12.1738L13.0835 12.1738C13.2912 12.1738 13.4905 12.2563 13.6374 12.4032C13.7843 12.5501 13.8668 12.7493 13.8668 12.9571Z" fill="#616161"/>
</mask>
<g mask="url(#mask0_169_5259)">
<rect x="-0.23291" y="-0.359863" width="23.5001" height="9.40005" fill="#E96B82"/>
</g>
<path d="M13.1953 10.3831L13.1953 13.0688" stroke="#747474" stroke-linecap="round"/>
<path d="M5.13818 5.01172L5.13818 7.69745" stroke="#FF5C5C" stroke-linecap="round"/>
</svg>
