<svg width="17" height="16" viewBox="0 0 17 16" fill="none" xmlns="http://www.w3.org/2000/svg">
<circle cx="8.5" cy="8" r="8" fill="black"/>
<path d="M5.47012 9.84906C5.52428 9.79498 5.59876 9.76343 5.67775 9.76343H12.8411C12.972 9.76343 13.0374 9.92118 12.9449 10.0136L11.5298 11.4266C11.4757 11.4807 11.4012 11.5122 11.3222 11.5122H4.15887C4.02797 11.5122 3.96252 11.3545 4.05505 11.2621L5.47012 9.84906Z" fill="url(#paint0_linear_212_514)"/>
<path d="M5.47012 4.57343C5.52654 4.51934 5.60102 4.48779 5.67775 4.48779H12.8411C12.972 4.48779 13.0374 4.64554 12.9449 4.73794L11.5298 6.15093C11.4757 6.20502 11.4012 6.23657 11.3222 6.23657H4.15887C4.02797 6.23657 3.96252 6.07882 4.05505 5.98642L5.47012 4.57343Z" fill="url(#paint1_linear_212_514)"/>
<path d="M11.5298 7.19428C11.4757 7.14019 11.4012 7.10864 11.3222 7.10864H4.15887C4.02797 7.10864 3.96252 7.26639 4.05505 7.35879L5.47012 8.77178C5.52428 8.82587 5.59876 8.85742 5.67775 8.85742H12.8411C12.972 8.85742 13.0374 8.69967 12.9449 8.60727L11.5298 7.19428Z" fill="url(#paint2_linear_212_514)"/>
<defs>
<linearGradient id="paint0_linear_212_514" x1="12.1568" y1="3.64373" x2="7.21059" y2="13.1316" gradientUnits="userSpaceOnUse">
<stop stop-color="#00FFA3"/>
<stop offset="1" stop-color="#DC1FFF"/>
</linearGradient>
<linearGradient id="paint1_linear_212_514" x1="9.98905" y1="2.51363" x2="5.04286" y2="12.0015" gradientUnits="userSpaceOnUse">
<stop stop-color="#00FFA3"/>
<stop offset="1" stop-color="#DC1FFF"/>
</linearGradient>
<linearGradient id="paint2_linear_212_514" x1="11.066" y1="3.07502" x2="6.11982" y2="12.5629" gradientUnits="userSpaceOnUse">
<stop stop-color="#00FFA3"/>
<stop offset="1" stop-color="#DC1FFF"/>
</linearGradient>
</defs>
</svg>
