<svg width="16" height="14" viewBox="0 0 16 14" fill="none" xmlns="http://www.w3.org/2000/svg">
<path fill-rule="evenodd" clip-rule="evenodd" d="M13.4748 13.082L13.4753 13.0806L13.4885 13.0457L15.7554 0.904182V0.864746C15.7554 0.562233 15.6502 0.29814 15.4212 0.139729C15.2208 0.00107153 14.9904 -0.00880324 14.8289 0.00422281C14.658 0.0179991 14.4969 0.063304 14.3854 0.101016C14.328 0.120417 14.28 0.139112 14.2456 0.153251C14.2284 0.160347 14.2144 0.166368 14.2043 0.170855L14.1943 0.175318L1.55518 5.44252L1.5517 5.44385C1.54487 5.44649 1.53585 5.45006 1.52494 5.45457C1.50321 5.46356 1.47362 5.47642 1.43886 5.49316C1.37061 5.52602 1.27632 5.57672 1.18069 5.64629C1.01828 5.76445 0.709015 6.04417 0.761237 6.48764C0.804492 6.85496 1.04284 7.08825 1.20353 7.20903C1.28967 7.27378 1.37207 7.32047 1.43242 7.35099C1.463 7.36645 1.48897 7.3783 1.50831 7.38667C1.51801 7.39086 1.52612 7.39421 1.53239 7.39674L1.54042 7.39993L1.54556 7.40195L3.75685 8.19281C3.74939 8.3402 3.76315 8.49048 3.79994 8.63875L4.9076 13.1025C5.03894 13.6317 5.48964 14.0004 6.00487 14C6.46669 13.9996 6.87628 13.7028 7.05028 13.26L8.77962 11.2957L11.7497 13.7147L11.7919 13.7343C12.0618 13.8593 12.3139 13.899 12.5444 13.8655C12.7745 13.8321 12.9575 13.7296 13.0949 13.6128C13.2301 13.4979 13.3227 13.3682 13.381 13.2706C13.4106 13.2209 13.4327 13.1773 13.448 13.1445C13.4557 13.128 13.4617 13.1141 13.4663 13.1032L13.472 13.0892L13.474 13.0841L13.4748 13.082ZM4.89635 8.33168C4.87117 8.23023 4.9107 8.12314 4.99407 8.0669L12.4945 3.0069C12.4945 3.0069 12.9356 2.72238 12.9199 3.0069C12.9199 3.0069 12.9986 3.05715 12.7622 3.29142C12.538 3.51393 7.41646 8.76678 6.89824 9.29831C6.86832 9.32899 6.85047 9.36418 6.83993 9.40691L6.00401 12.7954L4.89635 8.33168Z" fill="#5BBE7B"/>
</svg>
