<svg width="18" height="18" viewBox="0 0 18 18" fill="none" xmlns="http://www.w3.org/2000/svg">
<rect width="18" height="18" rx="9" fill="#454651"/>
<path d="M8.19194 11.0455V10.9943C8.19762 10.4517 8.25444 10.0199 8.36239 9.69886C8.47035 9.37784 8.62376 9.1179 8.82262 8.91903C9.02148 8.72017 9.26012 8.53693 9.53853 8.36932C9.70614 8.26705 9.85671 8.14631 9.99023 8.0071C10.1238 7.86506 10.2289 7.7017 10.3056 7.51705C10.3851 7.33239 10.4249 7.12784 10.4249 6.90341C10.4249 6.625 10.3596 6.38352 10.2289 6.17898C10.0982 5.97443 9.92347 5.81676 9.70472 5.70597C9.48597 5.59517 9.24308 5.53977 8.97603 5.53977C8.74308 5.53977 8.51864 5.58807 8.30273 5.68466C8.08683 5.78125 7.90643 5.93324 7.76154 6.14062C7.61665 6.34801 7.53285 6.61932 7.51012 6.95455H6.43626C6.45898 6.47159 6.58398 6.05824 6.81126 5.71449C7.04137 5.37074 7.34393 5.10795 7.71893 4.92614C8.09677 4.74432 8.5158 4.65341 8.97603 4.65341C9.47603 4.65341 9.91069 4.75284 10.28 4.9517C10.6522 5.15057 10.9391 5.4233 11.1408 5.76989C11.3453 6.11648 11.4476 6.51136 11.4476 6.95455C11.4476 7.26705 11.3993 7.54972 11.3027 7.80256C11.209 8.0554 11.0726 8.28125 10.8936 8.48011C10.7175 8.67898 10.5044 8.85511 10.2544 9.00852C10.0044 9.16477 9.80415 9.32955 9.65359 9.50284C9.50302 9.6733 9.39364 9.87642 9.32546 10.1122C9.25728 10.348 9.22035 10.642 9.21467 10.9943V11.0455H8.19194ZM8.73739 13.5682C8.52717 13.5682 8.34677 13.4929 8.1962 13.3423C8.04563 13.1918 7.97035 13.0114 7.97035 12.8011C7.97035 12.5909 8.04563 12.4105 8.1962 12.2599C8.34677 12.1094 8.52717 12.0341 8.73739 12.0341C8.94762 12.0341 9.12802 12.1094 9.27859 12.2599C9.42915 12.4105 9.50444 12.5909 9.50444 12.8011C9.50444 12.9403 9.46893 13.0682 9.3979 13.1847C9.32972 13.3011 9.23739 13.3949 9.12092 13.4659C9.00728 13.5341 8.87944 13.5682 8.73739 13.5682Z" fill="white"/>
</svg>
