<svg width="16" height="16" viewBox="0 0 16 16" fill="none" xmlns="http://www.w3.org/2000/svg">
<path d="M5.22851 14.7236C4.36752 14.7236 3.80936 14.1773 3.76779 13.3282L3.35214 4.68864H2.64554C2.40802 4.68864 2.2002 4.48675 2.2002 4.23736C2.2002 3.9939 2.40802 3.79202 2.64554 3.79202H5.34133V2.88352C5.34133 2.02253 5.89949 1.5 6.81392 1.5H9.07031C9.98474 1.5 10.5429 2.02253 10.5429 2.88352V3.79202H13.2565C13.5 3.79202 13.6959 3.9939 13.6959 4.23736C13.6959 4.48081 13.5 4.68864 13.2565 4.68864H12.544L12.1342 13.3223C12.0927 14.1714 11.5226 14.7236 10.6735 14.7236H5.22851ZM6.28545 2.9429V3.79202H9.59878V2.9429C9.59878 2.60444 9.36127 2.38474 9.00499 2.38474H6.87924C6.52296 2.38474 6.28545 2.60444 6.28545 2.9429ZM5.31164 13.827H10.5785C10.9289 13.827 11.1842 13.5776 11.1961 13.2214L11.588 4.68864H4.28439L4.70004 13.2214C4.71785 13.5717 4.97318 13.827 5.31164 13.827ZM6.19044 12.8116C5.97074 12.8116 5.8223 12.6751 5.81636 12.4613L5.63822 6.11372C5.63228 5.9059 5.78073 5.76339 6.00637 5.76339C6.22013 5.76339 6.36858 5.89996 6.37452 6.10779L6.55859 12.4613C6.56453 12.6691 6.41608 12.8116 6.19044 12.8116ZM7.94805 12.8116C7.72241 12.8116 7.56803 12.6691 7.56803 12.4613V6.11372C7.56803 5.9059 7.72241 5.76339 7.94805 5.76339C8.17369 5.76339 8.33401 5.9059 8.33401 6.11372V12.4613C8.33401 12.6691 8.17369 12.8116 7.94805 12.8116ZM9.7116 12.8116C9.48596 12.8116 9.33751 12.6691 9.34345 12.4613L9.52159 6.11372C9.52753 5.89996 9.67597 5.76339 9.88974 5.76339C10.1154 5.76339 10.2638 5.9059 10.2579 6.11372L10.0797 12.4613C10.0738 12.6751 9.92536 12.8116 9.7116 12.8116Z" fill="white"/>
</svg>
