<svg width="10" height="9" viewBox="0 0 10 9" fill="none" xmlns="http://www.w3.org/2000/svg">
<path d="M8.95308 7.28606H0.571707C0.256649 7.28606 0.000245337 7.57451 0.000245337 7.92895C0.000245337 8.51954 0.427311 9.00043 0.952675 9.00043H8.57211C9.09748 9.00043 9.52454 8.51954 9.52454 7.92895C9.52453 7.57449 9.26814 7.28606 8.95308 7.28606ZM0.200245 3.85732H9.31843C9.36605 3.85732 9.41786 3.83074 9.4533 3.79475C9.48794 3.75945 9.50955 3.71082 9.51387 3.65846C9.57559 2.96844 9.35881 2.29341 8.88641 1.70537C8.04065 0.653606 6.46039 0 4.76239 0C3.06174 0 1.47994 0.654883 0.635329 1.70922C0.162909 2.29856 -0.052717 2.97443 0.0109048 3.66533C0.0208201 3.77417 0.102729 3.85732 0.200245 3.85732ZM7.29432 1.77694C7.3686 1.69338 7.48937 1.69338 7.56367 1.77694L7.94464 2.20553C8.01892 2.28954 8.01892 2.42496 7.94464 2.50855C7.90768 2.55055 7.85892 2.57154 7.81016 2.57154C7.7614 2.57154 7.71262 2.55055 7.67529 2.50855L7.29432 2.07996C7.22004 1.9964 7.22004 1.86095 7.29432 1.77694ZM5.77043 2.63414L6.1514 2.20555C6.22568 2.12198 6.34645 2.12198 6.42075 2.20555C6.49503 2.28956 6.49503 2.42498 6.42075 2.50857L6.03978 2.93716C6.00282 2.97916 5.95406 3.00015 5.9053 3.00015C5.85654 3.00015 5.80777 2.97916 5.77043 2.93716C5.69615 2.85357 5.69615 2.71814 5.77043 2.63414ZM4.62752 0.919769C4.70181 0.836204 4.82258 0.836204 4.89687 0.919769L5.27784 1.34836C5.35212 1.43236 5.35212 1.56779 5.27784 1.65137C5.2409 1.69338 5.19212 1.71437 5.14336 1.71437C5.0946 1.71437 5.04583 1.69338 5.00849 1.65137L4.62752 1.22279C4.55322 1.1392 4.55322 1.00377 4.62752 0.919769ZM3.10363 1.77694L3.4846 1.34836C3.55888 1.26479 3.67965 1.26479 3.75395 1.34836C3.82823 1.43236 3.82823 1.56779 3.75395 1.65137L3.37298 2.07996C3.33602 2.12196 3.28726 2.14295 3.2385 2.14295C3.18975 2.14295 3.14097 2.12196 3.10363 2.07996C3.02935 1.9964 3.02935 1.86095 3.10363 1.77694ZM1.57974 2.20555C1.65402 2.12198 1.77479 2.12198 1.84909 2.20555L2.23006 2.63414C2.30434 2.71814 2.30434 2.85357 2.23006 2.93716C2.21248 2.95716 2.19153 2.97303 2.16844 2.98385C2.14536 2.99466 2.12059 3.0002 2.09558 3.00015C2.07052 3.00017 2.0457 2.99461 2.02255 2.9838C1.99941 2.97299 1.97839 2.95714 1.96071 2.93716L1.57974 2.50857C1.50546 2.42498 1.50546 2.28956 1.57974 2.20555ZM0.571707 4.28593C0.546684 4.2859 0.521902 4.29143 0.498779 4.30219C0.475657 4.31295 0.454647 4.32873 0.436953 4.34864C0.419259 4.36854 0.405229 4.39218 0.395664 4.41819C0.3861 4.4442 0.381189 4.47208 0.381214 4.50023C0.381189 4.52838 0.3861 4.55626 0.395664 4.58228C0.405229 4.60829 0.419259 4.63193 0.436953 4.65183C0.454647 4.67174 0.475657 4.68752 0.498779 4.69828C0.521902 4.70904 0.546684 4.71457 0.571707 4.71454H3.57414L5.81997 5.97759C5.84642 5.99265 5.87566 6.00043 5.9053 6.0003C5.95445 6.0003 6.00321 5.97887 6.03978 5.9373L7.12708 4.71454H8.95308C9.05823 4.71454 9.14358 4.61854 9.14358 4.50023C9.14358 4.38195 9.05824 4.28593 8.95308 4.28593H0.571707Z" fill="#8750E7"/>
<path d="M0.762188 6.85888H8.7626C9.2251 6.85888 9.59197 6.39344 9.51387 5.85684C9.45215 5.43554 9.09938 5.14453 8.71992 5.14453H7.55415L6.2497 6.61203C6.19318 6.67564 6.1203 6.71761 6.04139 6.732C5.96248 6.74639 5.88154 6.73246 5.81006 6.69219L3.0583 5.14455H0.804472C0.425029 5.14455 0.0722442 5.43556 0.0105198 5.85686C-0.067575 6.39342 0.299683 6.85888 0.762188 6.85888Z" fill="#8750E7"/>
</svg>
