<svg width="9" height="9" viewBox="0 0 9 9" fill="none" xmlns="http://www.w3.org/2000/svg">
<path d="M8.55486 1.45811L8.02999 0.532161C7.92014 0.338415 7.65663 0.26144 7.44132 0.360317C7.22604 0.459177 7.14058 0.696412 7.2504 0.890176L7.60796 1.52099C7.03567 1.69202 6.62159 2.17807 6.62159 2.74987V3.71581C6.62159 3.87896 6.76853 4.01123 6.9498 4.01123H7.72746V5.00081C7.72746 5.44009 7.33043 5.79745 6.84241 5.79745H6.30967V0.725802C6.30965 0.3256 5.94795 0 5.50332 0H1.63341C1.07318 0 0.61738 0.410239 0.61738 0.914504V7.56024C0.263646 7.63702 0 7.92409 0 8.26573V8.7046C0 8.86774 0.146939 9 0.32819 9H6.59888C6.78013 9 6.92709 8.86774 6.92709 8.7046V8.26573C6.92709 7.92409 6.6634 7.63702 6.30967 7.56024V6.58517H6.84241C7.813 6.58517 8.60267 5.87441 8.60267 5.00076V1.63711C8.60265 1.57488 8.58627 1.51354 8.55486 1.45811ZM4.92209 2.941H2.00498C1.85392 2.941 1.73147 2.83079 1.73147 2.69482V1.25967C1.73147 1.1237 1.85392 1.01349 2.00498 1.01349H4.92209C5.07315 1.01349 5.1956 1.1237 5.1956 1.25967V2.69484C5.1956 2.83079 5.07315 2.941 4.92209 2.941Z" fill="#8750E7"/>
</svg>
