<svg width="10" height="9" viewBox="0 0 10 9" fill="none" xmlns="http://www.w3.org/2000/svg">
<path d="M7.04609 6.82435C6.58627 6.82433 6.21217 6.45025 6.21217 5.99043V4.60552C6.21217 4.14569 6.58627 3.77161 7.04609 3.77161H9.21901C9.23218 3.77161 9.24526 3.77201 9.25828 3.7726V2.393C9.25828 2.03788 8.97039 1.75 8.61527 1.75H0.643023C0.287881 1.74998 0 2.03786 0 2.39298V8.20294C0 8.55806 0.287881 8.84597 0.643023 8.84597H8.61527C8.97039 8.84597 9.25828 8.55808 9.25828 8.20294V6.82335C9.24526 6.82396 9.23218 6.82435 9.21901 6.82435H7.04609Z" fill="#4F4F4F"/>
<path d="M9.21955 4.22646H7.04663C6.83844 4.22646 6.66966 4.39524 6.66966 4.60343V5.98834C6.66966 6.19653 6.83844 6.36531 7.04663 6.36531H9.21955C9.42774 6.36531 9.59652 6.19655 9.59652 5.98834V4.60343C9.59652 4.39522 9.42774 4.22646 9.21955 4.22646ZM7.79538 5.83996C7.49488 5.83996 7.25128 5.59636 7.25128 5.29586C7.25128 4.99536 7.49488 4.75176 7.79538 4.75176C8.09588 4.75176 8.33948 4.99536 8.33948 5.29586C8.33948 5.59636 8.09588 5.83996 7.79538 5.83996ZM7.49618 0.570061C7.35232 0.13464 6.88273 -0.101717 6.44733 0.0421397L3.18066 1.12136H7.67831L7.49618 0.570061Z" fill="#4F4F4F"/>
</svg>
