<svg width="12" height="11" viewBox="0 0 12 11" fill="none" xmlns="http://www.w3.org/2000/svg">
<mask id="path-1-inside-1_436_1201" fill="white">
<path fill-rule="evenodd" clip-rule="evenodd" d="M11.4952 1.91375C11.6046 2.02314 11.666 2.17149 11.666 2.32617C11.666 2.48084 11.6046 2.62919 11.4952 2.73858L9.74522 4.48858C9.63521 4.59484 9.48785 4.65364 9.33491 4.65231C9.18196 4.65098 9.03565 4.58963 8.9275 4.48148C8.81934 4.37332 8.75799 4.22701 8.75666 4.07407C8.75533 3.92112 8.81413 3.77377 8.92039 3.66375L9.67464 2.9095L2.91614 2.9095C2.76143 2.9095 2.61306 2.84804 2.50366 2.73864C2.39427 2.62925 2.33281 2.48087 2.33281 2.32617C2.33281 2.17146 2.39427 2.02308 2.50366 1.91369C2.61306 1.80429 2.76143 1.74283 2.91614 1.74283L9.67464 1.74283L8.92039 0.988582C8.81413 0.878564 8.75533 0.731212 8.75666 0.578264C8.75799 0.425316 8.81934 0.279009 8.9275 0.170854C9.03565 0.0626996 9.18196 0.00135102 9.33491 2.19496e-05C9.48785 -0.00130712 9.63521 0.0574896 9.74522 0.163748L11.4952 1.91375ZM9.33281 8.1595C9.33281 8.31421 9.27135 8.46258 9.16195 8.57198C9.05256 8.68138 8.90418 8.74283 8.74947 8.74283L1.99097 8.74283L2.74522 9.49708C2.85148 9.6071 2.91028 9.75445 2.90895 9.9074C2.90762 10.0603 2.84627 10.2067 2.73812 10.3148C2.62996 10.423 2.48366 10.4843 2.33071 10.4856C2.17776 10.487 2.03041 10.4282 1.92039 10.3219L0.17039 8.57192C0.0610319 8.46252 -0.00040186 8.31418 -0.000401854 8.1595C-0.000401847 8.00482 0.061032 7.85647 0.17039 7.74708L1.92039 5.99708C2.03041 5.89082 2.17776 5.83203 2.33071 5.83336C2.48366 5.83468 2.62996 5.89603 2.73812 6.00419C2.84627 6.11234 2.90762 6.25865 2.90895 6.4116C2.91028 6.56455 2.85148 6.7119 2.74522 6.82192L1.99097 7.57617L8.74947 7.57617C8.90418 7.57617 9.05256 7.63762 9.16195 7.74702C9.27135 7.85642 9.33281 8.00479 9.33281 8.1595Z"/>
</mask>
<path fill-rule="evenodd" clip-rule="evenodd" d="M11.4952 1.91375C11.6046 2.02314 11.666 2.17149 11.666 2.32617C11.666 2.48084 11.6046 2.62919 11.4952 2.73858L9.74522 4.48858C9.63521 4.59484 9.48785 4.65364 9.33491 4.65231C9.18196 4.65098 9.03565 4.58963 8.9275 4.48148C8.81934 4.37332 8.75799 4.22701 8.75666 4.07407C8.75533 3.92112 8.81413 3.77377 8.92039 3.66375L9.67464 2.9095L2.91614 2.9095C2.76143 2.9095 2.61306 2.84804 2.50366 2.73864C2.39427 2.62925 2.33281 2.48087 2.33281 2.32617C2.33281 2.17146 2.39427 2.02308 2.50366 1.91369C2.61306 1.80429 2.76143 1.74283 2.91614 1.74283L9.67464 1.74283L8.92039 0.988582C8.81413 0.878564 8.75533 0.731212 8.75666 0.578264C8.75799 0.425316 8.81934 0.279009 8.9275 0.170854C9.03565 0.0626996 9.18196 0.00135102 9.33491 2.19496e-05C9.48785 -0.00130712 9.63521 0.0574896 9.74522 0.163748L11.4952 1.91375ZM9.33281 8.1595C9.33281 8.31421 9.27135 8.46258 9.16195 8.57198C9.05256 8.68138 8.90418 8.74283 8.74947 8.74283L1.99097 8.74283L2.74522 9.49708C2.85148 9.6071 2.91028 9.75445 2.90895 9.9074C2.90762 10.0603 2.84627 10.2067 2.73812 10.3148C2.62996 10.423 2.48366 10.4843 2.33071 10.4856C2.17776 10.487 2.03041 10.4282 1.92039 10.3219L0.17039 8.57192C0.0610319 8.46252 -0.00040186 8.31418 -0.000401854 8.1595C-0.000401847 8.00482 0.061032 7.85647 0.17039 7.74708L1.92039 5.99708C2.03041 5.89082 2.17776 5.83203 2.33071 5.83336C2.48366 5.83468 2.62996 5.89603 2.73812 6.00419C2.84627 6.11234 2.90762 6.25865 2.90895 6.4116C2.91028 6.56455 2.85148 6.7119 2.74522 6.82192L1.99097 7.57617L8.74947 7.57617C8.90418 7.57617 9.05256 7.63762 9.16195 7.74702C9.27135 7.85642 9.33281 8.00479 9.33281 8.1595Z" fill="#747474"/>
<path d="M11.4952 1.91375L26.5824 -13.1689L26.5802 -13.1712L11.4952 1.91375ZM11.4952 2.73858L26.5802 17.8235L26.5824 17.8212L11.4952 2.73858ZM9.74522 4.48858L24.5657 19.8334L24.6991 19.7046L24.8302 19.5735L9.74522 4.48858ZM8.92039 3.66375L-6.16456 -11.4212L-6.29564 -11.2901L-6.42442 -11.1568L8.92039 3.66375ZM9.67464 2.9095L24.7596 17.9944L61.1778 -18.4238L9.67464 -18.4238L9.67464 2.9095ZM9.67464 1.74283L9.67464 23.0762L61.1778 23.0762L24.7596 -13.3421L9.67464 1.74283ZM8.92039 0.988582L-6.42443 15.8091L-6.29564 15.9424L-6.16456 16.0735L8.92039 0.988582ZM9.74522 0.163748L24.8302 -14.9212L24.6991 -15.0523L24.5657 -15.1811L9.74522 0.163748ZM9.33281 8.1595L-12.0005 8.1595L9.33281 8.1595ZM1.99097 8.74283L1.99097 -12.5905L-49.5123 -12.5905L-13.094 23.8278L1.99097 8.74283ZM2.74522 9.49708L18.09 -5.32344L17.9612 -5.45679L17.8302 -5.58788L2.74522 9.49708ZM1.92039 10.3219L-13.1646 25.4069L-13.0335 25.5379L-12.9001 25.6667L1.92039 10.3219ZM0.17039 8.57192L-14.9168 23.6546L-14.9146 23.6569L0.17039 8.57192ZM0.17039 7.74708L-14.9146 -7.33787L-14.9168 -7.33558L0.17039 7.74708ZM1.92039 5.99708L-12.9001 -9.34773L-13.0335 -9.21895L-13.1646 -9.08787L1.92039 5.99708ZM2.74522 6.82192L17.8302 21.9069L17.9612 21.7758L18.09 21.6424L2.74522 6.82192ZM1.99097 7.57617L-13.094 -7.50879L-49.5123 28.9095L1.99097 28.9095L1.99097 7.57617ZM11.4952 1.91375L-3.592 16.9964C-7.48203 13.1052 -9.66732 7.82832 -9.66732 2.32616L11.666 2.32617L32.9993 2.32617C32.9993 -3.48534 30.6912 -9.05893 26.5824 -13.1689L11.4952 1.91375ZM11.666 2.32617L-9.66732 2.32616C-9.66732 -3.17599 -7.48203 -8.45288 -3.592 -12.3441L11.4952 2.73858L26.5824 17.8212C30.6912 13.7113 32.9993 8.13768 32.9993 2.32617L11.666 2.32617ZM11.4952 2.73858L-3.58972 -12.3464L-5.33972 -10.5964L9.74522 4.48858L24.8302 19.5735L26.5802 17.8235L11.4952 2.73858ZM9.74522 4.48858L-5.0753 -10.8562C-1.16181 -14.636 4.07968 -16.7275 9.52028 -16.6802L9.33491 4.65231L9.14953 25.9848C14.896 26.0348 20.4322 23.8257 24.5657 19.8334L9.74522 4.48858ZM9.33491 4.65231L9.52028 -16.6802C14.9609 -16.6329 20.1652 -14.4507 24.0124 -10.6035L8.9275 4.48148L-6.15745 19.5664C-2.09394 23.6299 3.40303 25.9349 9.14953 25.9848L9.33491 4.65231ZM8.9275 4.48148L24.0124 -10.6035C27.8596 -6.75626 30.0419 -1.55191 30.0892 3.88869L8.75666 4.07407L-12.5759 4.25944C-12.5259 10.0059 -10.221 15.5029 -6.15745 19.5664L8.9275 4.48148ZM8.75666 4.07407L30.0892 3.88869C30.1365 9.32931 28.045 14.5708 24.2652 18.4843L8.92039 3.66375L-6.42442 -11.1568C-10.4167 -7.02326 -12.6258 -1.48707 -12.5759 4.25944L8.75666 4.07407ZM8.92039 3.66375L24.0053 18.7487L24.7596 17.9944L9.67464 2.9095L-5.41031 -12.1754L-6.16456 -11.4212L8.92039 3.66375ZM9.67464 2.9095L9.67464 -18.4238L2.91614 -18.4238L2.91614 2.9095L2.91614 24.2428L9.67464 24.2428L9.67464 2.9095ZM2.91614 2.9095L2.91614 -18.4238C8.41939 -18.4238 13.6972 -16.2377 17.5886 -12.3463L2.50366 2.73864L-12.5813 17.8236C-8.47112 21.9338 -2.89653 24.2428 2.91614 24.2428L2.91614 2.9095ZM2.50366 2.73864L17.5886 -12.3463C21.48 -8.45491 23.6661 -3.17707 23.6661 2.32617L2.33281 2.32617L-19.0005 2.32616C-19.0005 8.13882 -16.6915 13.7134 -12.5813 17.8236L2.50366 2.73864ZM2.33281 2.32617L23.6661 2.32617C23.6661 7.8294 21.48 13.1072 17.5886 16.9986L2.50366 1.91369L-12.5813 -13.1713C-16.6915 -9.06108 -19.0005 -3.48649 -19.0005 2.32616L2.33281 2.32617ZM2.50366 1.91369L17.5886 16.9986C13.6972 20.89 8.41939 23.0762 2.91614 23.0762L2.91614 1.74283L2.91614 -19.5905C-2.89653 -19.5905 -8.47112 -17.2814 -12.5813 -13.1713L2.50366 1.91369ZM2.91614 1.74283L2.91614 23.0762L9.67464 23.0762L9.67464 1.74283L9.67464 -19.5905L2.91614 -19.5905L2.91614 1.74283ZM9.67464 1.74283L24.7596 -13.3421L24.0053 -14.0964L8.92039 0.988582L-6.16456 16.0735L-5.41031 16.8278L9.67464 1.74283ZM8.92039 0.988582L24.2652 -13.8319C28.045 -9.91846 30.1365 -4.67698 30.0892 0.763639L8.75666 0.578264L-12.5759 0.39289C-12.6258 6.1394 -10.4167 11.6756 -6.42443 15.8091L8.92039 0.988582ZM8.75666 0.578264L30.0892 0.763639C30.0419 6.20424 27.8596 11.4086 24.0124 15.2558L8.9275 0.170854L-6.15745 -14.9141C-10.221 -10.8506 -12.5259 -5.35361 -12.5759 0.39289L8.75666 0.578264ZM8.9275 0.170854L24.0124 15.2558C20.1652 19.103 14.9609 21.2853 9.52028 21.3325L9.33491 2.19496e-05L9.14953 -21.3325C3.40305 -21.2826 -2.09393 -18.9776 -6.15745 -14.9141L8.9275 0.170854ZM9.33491 2.19496e-05L9.52028 21.3325C4.0797 21.3798 -1.1618 19.2883 -5.0753 15.5086L9.74522 0.163748L24.5657 -15.1811C20.4322 -19.1734 14.896 -21.3824 9.14953 -21.3325L9.33491 2.19496e-05ZM9.74522 0.163748L-5.33972 15.2487L-3.58972 16.9987L11.4952 1.91375L26.5802 -13.1712L24.8302 -14.9212L9.74522 0.163748ZM9.33281 8.1595L-12.0005 8.1595C-12.0005 2.65627 -9.81438 -2.62158 -5.92299 -6.51297L9.16195 8.57198L24.2469 23.6569C28.3571 19.5467 30.6661 13.9721 30.6661 8.1595L9.33281 8.1595ZM9.16195 8.57198L-5.92299 -6.51297C-2.03155 -10.4044 3.24632 -12.5905 8.74947 -12.5905L8.74947 8.74283L8.74947 30.0762C14.562 30.0762 20.1367 27.7672 24.2469 23.6569L9.16195 8.57198ZM8.74947 8.74283L8.74947 -12.5905L1.99097 -12.5905L1.99097 8.74283L1.99097 30.0762L8.74947 30.0762L8.74947 8.74283ZM1.99097 8.74283L-13.094 23.8278L-12.3397 24.582L2.74522 9.49708L17.8302 -5.58788L17.0759 -6.34213L1.99097 8.74283ZM2.74522 9.49708L-12.5996 24.3176C-16.3794 20.4041 -18.4709 15.1626 -18.4236 9.72202L2.90895 9.9074L24.2415 10.0928C24.2914 4.34632 22.0824 -1.18988 18.09 -5.32344L2.74522 9.49708ZM2.90895 9.9074L-18.4236 9.72202C-18.3763 4.28142 -16.194 -0.922931 -12.3468 -4.77014L2.73812 10.3148L17.8231 25.3998C21.8866 21.3362 24.1915 15.8393 24.2415 10.0928L2.90895 9.9074ZM2.73812 10.3148L-12.3468 -4.77014C-8.49965 -8.61731 -3.29532 -10.7996 2.14533 -10.8469L2.33071 10.4856L2.51608 31.8182C8.26263 31.7682 13.7596 29.4632 17.8231 25.3998L2.73812 10.3148ZM2.33071 10.4856L2.14533 -10.8469C7.58597 -10.8942 12.8275 -8.80264 16.7409 -5.0229L1.92039 10.3219L-12.9001 25.6667C-8.76664 29.659 -3.23045 31.8681 2.51608 31.8182L2.33071 10.4856ZM1.92039 10.3219L17.0053 -4.76303L15.2553 -6.51303L0.17039 8.57192L-14.9146 23.6569L-13.1646 25.4069L1.92039 10.3219ZM0.17039 8.57192L15.2576 -6.51075C19.1477 -2.61951 21.3329 2.65739 21.3329 8.1595L-0.000401854 8.1595L-21.3337 8.1595C-21.3337 13.971 -19.0256 19.5446 -14.9168 23.6546L0.17039 8.57192ZM-0.000401854 8.1595L21.3329 8.1595C21.3329 13.6616 19.1477 18.9385 15.2576 22.8297L0.17039 7.74708L-14.9168 -7.33558C-19.0256 -3.22554 -21.3337 2.34807 -21.3337 8.1595L-0.000401854 8.1595ZM0.17039 7.74708L15.2553 22.832L17.0053 21.082L1.92039 5.99708L-13.1646 -9.08787L-14.9146 -7.33787L0.17039 7.74708ZM1.92039 5.99708L16.7409 21.3419C12.8274 25.1217 7.58593 27.2132 2.14533 27.1659L2.33071 5.83336L2.51608 -15.4992C-3.23041 -15.5491 -8.76661 -13.34 -12.9001 -9.34773L1.92039 5.99708ZM2.33071 5.83336L2.14533 27.1659C-3.2952 27.1186 -8.49957 24.9364 -12.3468 21.0891L2.73812 6.00419L17.8231 -9.08076C13.7595 -13.1443 8.26251 -15.4492 2.51608 -15.4992L2.33071 5.83336ZM2.73812 6.00419L-12.3468 21.0891C-16.194 17.2419 -18.3763 12.0376 -18.4236 6.59697L2.90895 6.4116L24.2415 6.22623C24.1915 0.479744 21.8866 -5.01723 17.8231 -9.08076L2.73812 6.00419ZM2.90895 6.4116L-18.4236 6.59697C-18.4709 1.1564 -16.3794 -4.0851 -12.5996 -7.9986L2.74522 6.82192L18.09 21.6424C22.0823 17.5089 24.2914 11.9727 24.2415 6.22623L2.90895 6.4116ZM2.74522 6.82192L-12.3397 -8.26304L-13.094 -7.50879L1.99097 7.57617L17.0759 22.6611L17.8302 21.9069L2.74522 6.82192ZM1.99097 7.57617L1.99097 28.9095L8.74947 28.9095L8.74947 7.57617L8.74947 -13.7572L1.99097 -13.7572L1.99097 7.57617ZM8.74947 7.57617L8.74947 28.9095C3.24624 28.9095 -2.03161 26.7233 -5.92299 22.832L9.16195 7.74702L24.2469 -7.33792C20.1367 -11.4481 14.5621 -13.7572 8.74947 -13.7572L8.74947 7.57617ZM9.16195 7.74702L-5.92299 22.832C-9.81438 18.9406 -12.0005 13.6627 -12.0005 8.1595L9.33281 8.1595L30.6661 8.1595C30.6661 2.34685 28.3571 -3.22774 24.2469 -7.33792L9.16195 7.74702Z" fill="#747474" mask="url(#path-1-inside-1_436_1201)"/>
<mask id="mask0_436_1201" style="mask-type:alpha" maskUnits="userSpaceOnUse" x="0" y="0" width="12" height="11">
<path fill-rule="evenodd" clip-rule="evenodd" d="M11.4952 1.91375C11.6046 2.02314 11.666 2.17149 11.666 2.32617C11.666 2.48084 11.6046 2.62919 11.4952 2.73858L9.74522 4.48858C9.63521 4.59484 9.48785 4.65364 9.33491 4.65231C9.18196 4.65098 9.03565 4.58963 8.9275 4.48148C8.81934 4.37332 8.75799 4.22701 8.75666 4.07407C8.75533 3.92112 8.81413 3.77377 8.92039 3.66375L9.67464 2.9095L2.91614 2.9095C2.76143 2.9095 2.61306 2.84804 2.50366 2.73864C2.39427 2.62925 2.33281 2.48087 2.33281 2.32617C2.33281 2.17146 2.39427 2.02308 2.50366 1.91369C2.61306 1.80429 2.76143 1.74283 2.91614 1.74283L9.67464 1.74283L8.92039 0.988582C8.81413 0.878564 8.75533 0.731212 8.75666 0.578264C8.75799 0.425316 8.81934 0.279009 8.9275 0.170854C9.03565 0.0626996 9.18196 0.00135102 9.33491 2.19496e-05C9.48785 -0.00130712 9.63521 0.0574896 9.74522 0.163748L11.4952 1.91375ZM9.33281 8.1595C9.33281 8.31421 9.27135 8.46258 9.16195 8.57198C9.05256 8.68138 8.90418 8.74283 8.74947 8.74283L1.99097 8.74283L2.74522 9.49708C2.85148 9.6071 2.91028 9.75445 2.90895 9.9074C2.90762 10.0603 2.84627 10.2067 2.73812 10.3148C2.62996 10.423 2.48366 10.4843 2.33071 10.4856C2.17776 10.487 2.03041 10.4282 1.92039 10.3219L0.17039 8.57192C0.0610319 8.46252 -0.00040186 8.31418 -0.000401854 8.1595C-0.000401847 8.00482 0.061032 7.85647 0.17039 7.74708L1.92039 5.99708C2.03041 5.89082 2.17776 5.83203 2.33071 5.83336C2.48366 5.83468 2.62996 5.89603 2.73812 6.00419C2.84627 6.11234 2.90762 6.25865 2.90895 6.4116C2.91028 6.56455 2.85148 6.7119 2.74522 6.82192L1.99097 7.57617L8.74947 7.57617C8.90418 7.57617 9.05256 7.63762 9.16195 7.74702C9.27135 7.85642 9.33281 8.00479 9.33281 8.1595Z" fill="#616161"/>
</mask>
<g mask="url(#mask0_436_1201)">
<rect x="-1.16699" y="-1.75781" width="17.5" height="7" fill="#8750E7"/>
</g>
</svg>
