<svg width="12" height="14" viewBox="0 0 12 14" fill="none" xmlns="http://www.w3.org/2000/svg">
<path fill-rule="evenodd" clip-rule="evenodd" d="M3.1811 1.20446C3.1811 1.54741 2.94373 1.82543 2.65092 1.82543L1.2371 1.82543C1.13949 1.82543 1.06037 1.9181 1.06037 2.03242L1.06037 11.9679C1.06037 12.0822 1.13949 12.1749 1.2371 12.1749L2.65092 12.1749C2.94373 12.1749 3.1811 12.4529 3.1811 12.7959C3.1811 13.1388 2.94373 13.4168 2.65092 13.4168L1.2371 13.4168C0.553867 13.4168 4.97154e-07 12.7681 5.27136e-07 11.9679L8.99388e-07 2.03242C9.29369e-07 1.2322 0.553867 0.583496 1.2371 0.583496L2.65092 0.583496C2.94373 0.583496 3.1811 0.861512 3.1811 1.20446Z" fill="white"/>
<path fill-rule="evenodd" clip-rule="evenodd" d="M3.26787 5.95516C3.26787 5.52927 3.54577 5.174 3.90801 5.13681C5.14702 5.0096 6.39213 4.98717 7.63364 5.06961C7.64329 4.86512 7.65447 4.66071 7.66719 4.45639L7.74394 3.22311C7.77354 2.74761 8.22622 2.4818 8.56923 2.73851C9.74418 3.61784 10.7656 4.75088 11.5791 6.07723L11.8821 6.57133C12.0393 6.82758 12.0393 7.17273 11.8821 7.42898L11.5791 7.92308C10.7656 9.24943 9.74418 10.3825 8.56923 11.2618C8.22622 11.5185 7.77354 11.2527 7.74395 10.7772L7.66719 9.54392C7.65447 9.3396 7.64329 9.13519 7.63364 8.9307C6.39213 9.01314 5.14702 8.99071 3.908 8.86349C3.54577 8.8263 3.26787 8.47104 3.26787 8.04515L3.26787 5.95516Z" fill="white"/>
</svg>
