<svg width="12" height="18" viewBox="0 0 12 18" fill="none" xmlns="http://www.w3.org/2000/svg">
<path d="M0.603027 10.9209C0.603027 9.45117 1.77197 7.94043 3.70654 7.22949L3.92529 4.05078C2.90674 3.46973 2.1001 2.83398 1.74463 2.38281C1.56006 2.13672 1.46436 1.89062 1.46436 1.67188C1.46436 1.2207 1.81299 0.885742 2.32568 0.885742H9.67432C10.187 0.885742 10.5356 1.2207 10.5356 1.67188C10.5356 1.89062 10.4399 2.13672 10.2554 2.38281C9.8999 2.83398 9.09326 3.46973 8.07471 4.05078L8.30029 7.22949C10.228 7.94043 11.397 9.45117 11.397 10.9209C11.397 11.5361 10.98 11.9463 10.3306 11.9463H6.67334V15.1797C6.67334 16.1436 6.18799 17.1143 6.00342 17.1143C5.81201 17.1143 5.32666 16.1436 5.32666 15.1797V11.9463H1.66943C1.02002 11.9463 0.603027 11.5361 0.603027 10.9209Z" fill="white"/>
</svg>
