<svg width="13" height="14" viewBox="0 0 13 14" fill="none" xmlns="http://www.w3.org/2000/svg">
<path d="M4.46684 7C4.46684 5.87712 5.37712 4.96685 6.49999 4.96685C7.62287 4.96685 8.53315 5.87712 8.53315 7C8.53315 8.12288 7.62287 9.03315 6.49999 9.03315C5.37712 9.03315 4.46684 8.12288 4.46684 7Z" fill="white"/>
<path fill-rule="evenodd" clip-rule="evenodd" d="M6.16263 0.643122C6.34706 0.452293 6.65293 0.452293 6.83737 0.643122L8.44658 2.30811H10.7227C10.9818 2.30811 11.1919 2.51817 11.1919 2.7773V5.05343L12.8569 6.66263C13.0477 6.84706 13.0477 7.15293 12.8569 7.33737L11.1919 8.94657V11.2227C11.1919 11.4818 10.9818 11.6919 10.7227 11.6919H8.44658L6.83737 13.3569C6.65293 13.5477 6.34706 13.5477 6.16263 13.3569L4.55342 11.6919H2.2773C2.01817 11.6919 1.80811 11.4818 1.80811 11.2227V8.94658L0.143122 7.33737C-0.0477071 7.15293 -0.0477075 6.84706 0.143122 6.66263L1.80811 5.05342V2.7773C1.80811 2.51817 2.01817 2.30811 2.2773 2.30811H4.55342L6.16263 0.643122ZM6.49999 4.02847C4.85886 4.02847 3.52846 5.35887 3.52846 7C3.52846 8.64113 4.85886 9.97153 6.49999 9.97153C8.14113 9.97153 9.47153 8.64113 9.47153 7C9.47153 5.35887 8.14113 4.02847 6.49999 4.02847Z" fill="white"/>
</svg>
