<svg width="16" height="16" viewBox="0 0 16 16" fill="none" xmlns="http://www.w3.org/2000/svg">
<path fill-rule="evenodd" clip-rule="evenodd" d="M12.5337 5.46646H10.667V4.66646H12.6677C13.0343 4.66646 13.3337 4.96379 13.3337 5.33046V14.0025C13.333 14.1783 13.2628 14.3468 13.1384 14.4712C13.014 14.5956 12.8455 14.6658 12.6697 14.6665H3.33099C3.1551 14.6658 2.98662 14.5956 2.86225 14.4712C2.73788 14.3468 2.66769 14.1783 2.66699 14.0025V5.33046C2.6677 5.15423 2.73815 4.98544 2.86296 4.86102C2.98776 4.73659 3.15676 4.66664 3.33299 4.66646H5.33366V5.46646H3.46699V13.8665H12.5337V5.46646ZM8.40033 2.84113V8.9998H7.60033V2.84113L6.20899 4.23246L5.64299 3.66646L7.52899 1.78113C7.65401 1.65615 7.82355 1.58594 8.00033 1.58594C8.1771 1.58594 8.34664 1.65615 8.47166 1.78113L10.3577 3.66646L9.79166 4.23246L8.40033 2.84113Z" fill="white"/>
</svg>
