<svg width="12" height="12" viewBox="0 0 12 12" fill="none" xmlns="http://www.w3.org/2000/svg">
<path d="M8.87304 8.94428C8.30926 8.94425 7.85058 8.48559 7.85058 7.92181V6.22378C7.85058 5.66 8.30926 5.20134 8.87304 5.20134H11.5372C11.5534 5.20134 11.5694 5.20183 11.5854 5.20254V3.51104C11.5854 3.07562 11.2324 2.72266 10.797 2.72266H1.02229C0.586855 2.72263 0.233887 3.0756 0.233887 3.51101V10.6346C0.233887 11.07 0.586855 11.423 1.02229 11.423H10.797C11.2324 11.423 11.5854 11.07 11.5854 10.6346V8.94305C11.5694 8.94379 11.5534 8.94428 11.5372 8.94428H8.87304Z" fill="#9B9C9E"/>
<path d="M11.538 5.75918H8.87382C8.61856 5.75918 8.41162 5.96612 8.41162 6.22138V7.9194C8.41162 8.17466 8.61856 8.3816 8.87382 8.3816H11.538C11.7933 8.3816 12.0002 8.17469 12.0002 7.9194V6.22138C12.0002 5.96609 11.7933 5.75918 11.538 5.75918ZM9.79186 7.73748C9.42342 7.73748 9.12474 7.4388 9.12474 7.07036C9.12474 6.70192 9.42342 6.40325 9.79186 6.40325C10.1603 6.40325 10.459 6.70192 10.459 7.07036C10.459 7.4388 10.1603 7.73748 9.79186 7.73748ZM9.42501 1.2761C9.24863 0.742229 8.67286 0.452434 8.13902 0.628816L4.13379 1.95204H9.64832L9.42501 1.2761Z" fill="#9B9C9E"/>
</svg>
