<svg width="12" height="12" viewBox="0 0 12 12" fill="none" xmlns="http://www.w3.org/2000/svg">
<path fill-rule="evenodd" clip-rule="evenodd" d="M11.6622 2.67156C11.7716 2.78095 11.833 2.9293 11.833 3.08398C11.833 3.23866 11.7716 3.387 11.6622 3.49639L9.91222 5.24639C9.8022 5.35265 9.65485 5.41145 9.5019 5.41012C9.34895 5.40879 9.20264 5.34744 9.09449 5.23929C8.98633 5.13113 8.92498 4.98483 8.92366 4.83188C8.92233 4.67893 8.98112 4.53158 9.08738 4.42156L9.84163 3.66731L3.08313 3.66731C2.92842 3.66731 2.78005 3.60585 2.67065 3.49646C2.56126 3.38706 2.4998 3.23869 2.4998 3.08398C2.4998 2.92927 2.56126 2.7809 2.67065 2.6715C2.78005 2.5621 2.92842 2.50064 3.08313 2.50064L9.84163 2.50064L9.08738 1.74639C8.98112 1.63638 8.92233 1.48902 8.92366 1.33608C8.92498 1.18313 8.98633 1.03682 9.09449 0.928667C9.20264 0.820512 9.34895 0.759164 9.5019 0.757834C9.65485 0.756505 9.8022 0.815302 9.91222 0.921561L11.6622 2.67156ZM9.4998 8.91731C9.4998 9.07202 9.43834 9.22039 9.32894 9.32979C9.21955 9.43919 9.07118 9.50064 8.91647 9.50064L2.15797 9.50064L2.91222 10.2549C3.01848 10.3649 3.07727 10.5123 3.07594 10.6652C3.07461 10.8182 3.01327 10.9645 2.90511 11.0726C2.79696 11.1808 2.65065 11.2421 2.4977 11.2435C2.34475 11.2448 2.1974 11.186 2.08738 11.0797L0.337382 9.32973C0.228024 9.22034 0.16659 9.07199 0.16659 8.91731C0.16659 8.76263 0.228024 8.61429 0.337382 8.50489L2.08738 6.75489C2.1974 6.64864 2.34475 6.58984 2.4977 6.59117C2.65065 6.5925 2.79696 6.65385 2.90511 6.762C3.01327 6.87015 3.07461 7.01646 3.07594 7.16941C3.07727 7.32236 3.01848 7.46971 2.91222 7.57973L2.15797 8.33398L8.91647 8.33398C9.07118 8.33398 9.21955 8.39544 9.32894 8.50483C9.43834 8.61423 9.4998 8.7626 9.4998 8.91731Z" fill="#747474"/>
<mask id="mask0_436_1595" style="mask-type:alpha" maskUnits="userSpaceOnUse" x="0" y="0" width="12" height="12">
<path fill-rule="evenodd" clip-rule="evenodd" d="M11.6622 2.67156C11.7716 2.78095 11.833 2.9293 11.833 3.08398C11.833 3.23866 11.7716 3.387 11.6622 3.49639L9.91222 5.24639C9.8022 5.35265 9.65485 5.41145 9.5019 5.41012C9.34895 5.40879 9.20264 5.34744 9.09449 5.23929C8.98633 5.13113 8.92498 4.98483 8.92366 4.83188C8.92233 4.67893 8.98112 4.53158 9.08738 4.42156L9.84163 3.66731L3.08313 3.66731C2.92842 3.66731 2.78005 3.60585 2.67065 3.49646C2.56126 3.38706 2.4998 3.23869 2.4998 3.08398C2.4998 2.92927 2.56126 2.7809 2.67065 2.6715C2.78005 2.5621 2.92842 2.50064 3.08313 2.50064L9.84163 2.50064L9.08738 1.74639C8.98112 1.63638 8.92233 1.48902 8.92366 1.33608C8.92498 1.18313 8.98633 1.03682 9.09449 0.928667C9.20264 0.820512 9.34895 0.759164 9.5019 0.757834C9.65485 0.756505 9.8022 0.815302 9.91222 0.921561L11.6622 2.67156ZM9.4998 8.91731C9.4998 9.07202 9.43834 9.22039 9.32894 9.32979C9.21955 9.43919 9.07118 9.50064 8.91647 9.50064L2.15797 9.50064L2.91222 10.2549C3.01848 10.3649 3.07727 10.5123 3.07594 10.6652C3.07461 10.8182 3.01327 10.9645 2.90511 11.0726C2.79696 11.1808 2.65065 11.2421 2.4977 11.2435C2.34475 11.2448 2.1974 11.186 2.08738 11.0797L0.337382 9.32973C0.228024 9.22034 0.16659 9.07199 0.16659 8.91731C0.16659 8.76263 0.228024 8.61429 0.337382 8.50489L2.08738 6.75489C2.1974 6.64864 2.34475 6.58984 2.4977 6.59117C2.65065 6.5925 2.79696 6.65385 2.90511 6.762C3.01327 6.87015 3.07461 7.01646 3.07594 7.16941C3.07727 7.32236 3.01848 7.46971 2.91222 7.57973L2.15797 8.33398L8.91647 8.33398C9.07118 8.33398 9.21955 8.39544 9.32894 8.50483C9.43834 8.61423 9.4998 8.7626 9.4998 8.91731Z" fill="#616161"/>
</mask>
<g mask="url(#mask0_436_1595)">
<rect x="-1" y="-1" width="17.5" height="7" fill="#FF5C5C"/>
</g>
</svg>
