<svg width="10" height="10" viewBox="0 0 10 10" fill="none" xmlns="http://www.w3.org/2000/svg">
<g opacity="0.5">
<path fill-rule="evenodd" clip-rule="evenodd" d="M4.53525 8.20987e-08H2.20952C1.99369 8.20987e-08 1.7867 0.0855872 1.63413 0.238621C1.55845 0.314106 1.49841 0.403789 1.45746 0.502527C1.41651 0.601265 1.39546 0.707116 1.39551 0.814008V2.6746C1.39551 2.86717 1.5518 3.02346 1.74437 3.02346H5.0004C5.09292 3.02346 5.18166 2.9867 5.24708 2.92128C5.3125 2.85585 5.34926 2.76712 5.34926 2.6746V0.814008C5.34926 0.598179 5.26367 0.391189 5.11064 0.238621C5.03515 0.162938 4.94547 0.102901 4.84673 0.0619535C4.74799 0.0210056 4.64214 -4.79787e-05 4.53525 8.20987e-08ZM7.20985 5.81434V8.14008H8.83321C9.14346 8.14008 9.44069 8.01588 9.65978 7.79447C9.87844 7.57348 10.001 7.27507 10.0007 6.96418V5.81434H7.20985ZM7.20985 3.72118V5.11662H10.0007V4.89707C10.0007 4.58542 9.87793 4.2868 9.65978 4.06678C9.55171 3.95736 9.42301 3.87047 9.28113 3.81115C9.13924 3.75182 8.987 3.72124 8.83321 3.72118H7.20985Z" fill="white"/>
<path fill-rule="evenodd" clip-rule="evenodd" d="M0.930294 1.67773C0.662403 1.75367 0.426607 1.91495 0.258707 2.13708C0.0908077 2.35922 -2.5175e-05 2.63007 5.23386e-09 2.90851V8.72285C5.23386e-09 9.06211 0.134768 9.38747 0.374656 9.62735C0.614544 9.86724 0.939902 10.002 1.27915 10.002H5.46548C5.80473 10.002 6.13009 9.86724 6.36998 9.62735C6.60987 9.38747 6.74463 9.06211 6.74463 8.72285V2.90851C6.74466 2.63007 6.65383 2.35922 6.48593 2.13708C6.31803 1.91495 6.08223 1.75367 5.81434 1.67773V2.67594C5.81434 2.89183 5.72858 3.09887 5.57592 3.25153C5.42327 3.40419 5.21622 3.48995 5.00033 3.48995H1.7443C1.52841 3.48995 1.32137 3.40419 1.16871 3.25153C1.01606 3.09887 0.930294 2.89183 0.930294 2.67594V1.67773ZM1.86059 8.72285C1.95311 8.72285 2.04185 8.75961 2.10727 8.82503C2.17269 8.89046 2.20945 8.97919 2.20945 9.07171C2.20945 9.16424 2.17269 9.25297 2.10727 9.3184C2.04185 9.38382 1.95311 9.42057 1.86059 9.42057C1.76806 9.42057 1.67933 9.38382 1.61391 9.3184C1.54848 9.25297 1.51173 9.16424 1.51173 9.07171C1.51173 8.97919 1.54848 8.89046 1.61391 8.82503C1.67933 8.75961 1.76806 8.72285 1.86059 8.72285ZM3.37232 8.72285C3.46484 8.72285 3.55357 8.75961 3.619 8.82503C3.68442 8.89046 3.72118 8.97919 3.72118 9.07171C3.72118 9.16424 3.68442 9.25297 3.619 9.3184C3.55357 9.38382 3.46484 9.42057 3.37232 9.42057C3.27979 9.42057 3.19106 9.38382 3.12564 9.3184C3.06021 9.25297 3.02346 9.16424 3.02346 9.07171C3.02346 8.97919 3.06021 8.89046 3.12564 8.82503C3.19106 8.75961 3.27979 8.72285 3.37232 8.72285ZM4.88405 8.72285C4.97657 8.72285 5.0653 8.75961 5.13073 8.82503C5.19615 8.89046 5.23291 8.97919 5.23291 9.07171C5.23291 9.16424 5.19615 9.25297 5.13073 9.3184C5.0653 9.38382 4.97657 9.42057 4.88405 9.42057C4.79152 9.42057 4.70279 9.38382 4.63736 9.3184C4.57194 9.25297 4.53518 9.16424 4.53518 9.07171C4.53518 8.97919 4.57194 8.89046 4.63736 8.82503C4.70279 8.75961 4.79152 8.72285 4.88405 8.72285ZM1.86059 7.55999C1.95311 7.55999 2.04185 7.59674 2.10727 7.66216C2.17269 7.72759 2.20945 7.81632 2.20945 7.90885C2.20945 8.00137 2.17269 8.0901 2.10727 8.15553C2.04185 8.22095 1.95311 8.25771 1.86059 8.25771C1.76806 8.25771 1.67933 8.22095 1.61391 8.15553C1.54848 8.0901 1.51173 8.00137 1.51173 7.90885C1.51173 7.81632 1.54848 7.72759 1.61391 7.66216C1.67933 7.59674 1.76806 7.55999 1.86059 7.55999ZM3.37232 7.55999C3.46484 7.55999 3.55357 7.59674 3.619 7.66216C3.68442 7.72759 3.72118 7.81632 3.72118 7.90885C3.72118 8.00137 3.68442 8.0901 3.619 8.15553C3.55357 8.22095 3.46484 8.25771 3.37232 8.25771C3.27979 8.25771 3.19106 8.22095 3.12564 8.15553C3.06021 8.0901 3.02346 8.00137 3.02346 7.90885C3.02346 7.81632 3.06021 7.72759 3.12564 7.66216C3.19106 7.59674 3.27979 7.55999 3.37232 7.55999ZM4.88405 7.55999C4.97657 7.55999 5.0653 7.59674 5.13073 7.66216C5.19615 7.72759 5.23291 7.81632 5.23291 7.90885C5.23291 8.00137 5.19615 8.0901 5.13073 8.15553C5.0653 8.22095 4.97657 8.25771 4.88405 8.25771C4.79152 8.25771 4.70279 8.22095 4.63736 8.15553C4.57194 8.0901 4.53518 8.00137 4.53518 7.90885C4.53518 7.81632 4.57194 7.72759 4.63736 7.66216C4.70279 7.59674 4.79152 7.55999 4.88405 7.55999ZM4.76776 4.53653C4.89112 4.53653 5.00943 4.58554 5.09667 4.67277C5.1839 4.76 5.23291 4.87831 5.23291 5.00168V6.16454C5.23291 6.28791 5.1839 6.40622 5.09667 6.49345C5.00943 6.58068 4.89112 6.62969 4.76776 6.62969H1.97688C1.85351 6.62969 1.7352 6.58068 1.64797 6.49345C1.56073 6.40622 1.51173 6.28791 1.51173 6.16454V5.00168C1.51173 4.87831 1.56073 4.76 1.64797 4.67277C1.7352 4.58554 1.85351 4.53653 1.97688 4.53653H4.76776Z" fill="white"/>
</g>
</svg>
