<svg width="4" height="5" viewBox="0 0 4 5" fill="none" xmlns="http://www.w3.org/2000/svg">
<path d="M3.67114 3.57649C3.75842 3.57641 3.8421 3.5417 3.90382 3.47999C3.96553 3.41827 4.00024 3.33459 4.00032 3.24731V0.829185C4.00024 0.741905 3.96553 0.658222 3.90382 0.596506C3.8421 0.534789 3.75842 0.500081 3.67114 0.5H1.25301C1.16573 0.500081 1.08205 0.534789 1.02033 0.596506C0.958618 0.658222 0.92391 0.741905 0.923828 0.829185V1.1153H2.74819C2.91699 1.11562 3.07878 1.18282 3.19814 1.30218C3.3175 1.42154 3.3847 1.58333 3.38502 1.75213V3.57649H3.67114Z" fill="#747474"/>
<path d="M2.74731 1.42188H0.329185C0.147381 1.42188 0 1.56926 0 1.75106V4.16918C0 4.35099 0.147381 4.49837 0.329185 4.49837H2.74731C2.92911 4.49837 3.07649 4.35099 3.07649 4.16918V1.75106C3.07649 1.56926 2.92911 1.42188 2.74731 1.42188Z" fill="#747474"/>
</svg>
