<svg width="7" height="9" viewBox="0 0 7 9" fill="none" xmlns="http://www.w3.org/2000/svg">
<path fill-rule="evenodd" clip-rule="evenodd" d="M4.51613 0.115385C4.51613 0.0516594 4.46558 0 4.40323 0H1.24194C0.556033 0 0 0.568255 0 1.26923V7.73077C0 8.43175 0.556033 9 1.24194 9H5.75806C6.44397 9 7 8.43175 7 7.73077V3.18326C7 3.11953 6.94945 3.06787 6.8871 3.06787H4.85484C4.66777 3.06787 4.51613 2.91289 4.51613 2.72172V0.115385ZM4.85484 4.61538C5.0419 4.61538 5.19355 4.77036 5.19355 4.96154C5.19355 5.15271 5.0419 5.30769 4.85484 5.30769H2.14516C1.9581 5.30769 1.80645 5.15271 1.80645 4.96154C1.80645 4.77036 1.9581 4.61538 2.14516 4.61538H4.85484ZM4.85484 6.46154C5.0419 6.46154 5.19355 6.61652 5.19355 6.80769C5.19355 6.99887 5.0419 7.15385 4.85484 7.15385H2.14516C1.9581 7.15385 1.80645 6.99887 1.80645 6.80769C1.80645 6.61652 1.9581 6.46154 2.14516 6.46154H4.85484Z" fill="#8750E7"/>
<path d="M5.19355 0.264986C5.19355 0.179834 5.28055 0.125767 5.34538 0.179255C5.39998 0.224307 5.44907 0.277088 5.49095 0.336715L6.85173 2.27421C6.88271 2.31832 6.84915 2.37557 6.79602 2.37557H5.30645C5.2441 2.37557 5.19355 2.32391 5.19355 2.26018V0.264986Z" fill="#8750E7"/>
</svg>
