<svg width="5" height="5" viewBox="0 0 5 5" fill="none" xmlns="http://www.w3.org/2000/svg">
<path d="M3.76394 0.10463C3.58539 -0.0739191 3.28297 -0.0156777 3.1835 0.216413L2.68114 1.3886C2.2684 1.26631 1.80322 1.36797 1.47725 1.69394L1.08991 2.08128C1.00628 2.16491 1.00628 2.30051 1.08991 2.38414L1.70146 2.99569L0.0627233 4.63442C-0.0209078 4.71805 -0.0209077 4.85365 0.0627231 4.93728C0.146354 5.02091 0.281946 5.02091 0.365577 4.93728L2.00431 3.29854L2.61587 3.91011C2.6995 3.99374 2.8351 3.99374 2.91873 3.91011L3.30606 3.52277C3.63204 3.1968 3.7337 2.7316 3.61141 2.31887L4.78359 1.8165C5.01568 1.71704 5.07392 1.41461 4.89537 1.23607L3.76394 0.10463Z" fill="white"/>
</svg>
