<svg width="10" height="9" viewBox="0 0 10 9" fill="none" xmlns="http://www.w3.org/2000/svg">
<g opacity="0.5">
<path d="M2.5 5.14258H0.357143C0.159898 5.14258 0 5.28648 0 5.46399V8.6781C0 8.85561 0.159898 8.99951 0.357143 8.99951H2.5C2.69724 8.99951 2.85714 8.85561 2.85714 8.6781V5.46399C2.85714 5.28648 2.69724 5.14258 2.5 5.14258Z" fill="white"/>
<path d="M9.64258 2.57227H7.49972C7.30248 2.57227 7.14258 2.71617 7.14258 2.89368V8.67907C7.14258 8.85658 7.30248 9.00048 7.49972 9.00048H9.64258C9.83982 9.00048 9.99972 8.85658 9.99972 8.67907V2.89368C9.99972 2.71617 9.83982 2.57227 9.64258 2.57227Z" fill="white"/>
<path d="M6.07129 0H3.92843C3.73119 0 3.57129 0.1439 3.57129 0.321411V8.67809C3.57129 8.8556 3.73119 8.9995 3.92843 8.9995H6.07129C6.26853 8.9995 6.42843 8.8556 6.42843 8.67809V0.321411C6.42843 0.1439 6.26853 0 6.07129 0Z" fill="white"/>
</g>
</svg>
