<svg width="10" height="9" viewBox="0 0 10 9" fill="none" xmlns="http://www.w3.org/2000/svg">
<path d="M5 3.74957C7.76142 3.74957 10 2.9102 10 1.87478C10 0.839369 7.76142 0 5 0C2.23858 0 0 0.839369 0 1.87478C0 2.9102 2.23858 3.74957 5 3.74957Z" fill="#88888A"/>
<path d="M5 3.74957C7.76142 3.74957 10 2.9102 10 1.87478C10 0.839369 7.76142 0 5 0C2.23858 0 0 0.839369 0 1.87478C0 2.9102 2.23858 3.74957 5 3.74957Z" fill="#88888A"/>
<path d="M8.85176 4.26648C7.80809 4.65779 6.4402 4.87332 5 4.87332C3.5598 4.87332 2.19189 4.65779 1.14824 4.26648C0.670625 4.0874 0.294668 3.88387 0 3.66797V4.46085C0 4.96162 0.520059 5.43244 1.46447 5.78651C2.40883 6.14063 3.66443 6.33566 5 6.33566C6.33557 6.33566 7.59117 6.14065 8.53553 5.78653C9.4799 5.43244 10 4.96162 10 4.46085V3.66797C9.70533 3.88387 9.32938 4.08736 8.85176 4.26648Z" fill="#88888A"/>
<path d="M8.85176 6.85435C7.80813 7.24566 6.4402 7.46119 5 7.46119C3.5598 7.46119 2.19187 7.24566 1.14824 6.85433C0.670605 6.67525 0.294648 6.47176 0 6.25586V7.12375C0 8.15914 2.23857 8.99851 5 8.99851C7.76143 8.99851 10 8.15914 10 7.12373V6.25588C9.70537 6.47174 9.32939 6.67527 8.85176 6.85435Z" fill="#88888A"/>
</svg>
