<svg width="5" height="6" viewBox="0 0 5 6" fill="none" xmlns="http://www.w3.org/2000/svg">
<path fill-rule="evenodd" clip-rule="evenodd" d="M1.79202 0.267578C1.61289 0.267578 1.46758 0.412879 1.46758 0.592011C1.46758 0.61335 1.46338 0.63448 1.4552 0.654192C1.44703 0.673904 1.43505 0.69181 1.41995 0.706888C1.40485 0.721966 1.38693 0.733918 1.3672 0.742062C1.34748 0.750206 1.32634 0.754382 1.305 0.75435H0.548073C0.483523 0.75435 0.421617 0.779992 0.375974 0.825636C0.33033 0.87128 0.304688 0.933186 0.304688 0.997736C0.304688 1.06229 0.33033 1.12419 0.375974 1.16984C0.421617 1.21548 0.483523 1.24112 0.548073 1.24112H3.95547C4.02002 1.24112 4.08193 1.21548 4.12757 1.16984C4.17322 1.12419 4.19886 1.06229 4.19886 0.997736C4.19886 0.933186 4.17322 0.87128 4.12757 0.825636C4.08193 0.779992 4.02002 0.75435 3.95547 0.75435H3.19806C3.15505 0.754285 3.11382 0.737153 3.08343 0.706716C3.05303 0.676279 3.03596 0.635024 3.03596 0.592011C3.03596 0.412879 2.89066 0.267578 2.71153 0.267578H1.79202ZM0.791459 1.72789C0.757785 1.72788 0.724475 1.73485 0.693634 1.74837C0.662794 1.76189 0.635094 1.78166 0.612287 1.80644C0.58948 1.83121 0.572062 1.86045 0.561135 1.8923C0.550208 1.92415 0.546008 1.95792 0.548803 1.99148L0.736454 4.2428C0.756781 4.48612 0.867794 4.71291 1.04749 4.87822C1.22718 5.04353 1.46242 5.13529 1.70659 5.13529H2.79696C3.04116 5.13528 3.27644 5.04349 3.45614 4.87813C3.63584 4.71277 3.74683 4.48592 3.76709 4.24256L3.9545 1.99148C3.95729 1.95794 3.9531 1.92419 3.94219 1.89236C3.93128 1.86052 3.91388 1.8313 3.8911 1.80653C3.86832 1.78175 3.84065 1.76198 3.80984 1.74844C3.77903 1.73491 3.74574 1.72791 3.71209 1.72789H0.791459Z" fill="#747474"/>
</svg>
